<svg xmlns="http://www.w3.org/2000/svg" width="634" height="465.465" viewBox="0 0 634 465.465">
  <g id="hero-img" transform="translate(0 0)">
    <ellipse id="Ellipse_1" data-name="Ellipse 1" cx="22.131" cy="22.602" rx="22.131" ry="22.602" transform="translate(102.116 32.911)" fill="#2f2e41"/>
    <path id="Path_1" data-name="Path 1" d="M235.615,562.659l13.6-48.159,4.629,1.477s-5.5,36.046-14.175,45.2Z" transform="translate(-178.773 -235.029)" fill="#2f2e41"/>
    <path id="Path_2" data-name="Path 2" d="M306.692,224.917s1.736,18.909-2.314,24.227,2.6,15.659,2.6,15.659l12.15,14.773,17.936-8.273,2.6-15.364L337.935,245.3s-6.075-6.2-3.471-17.432S306.692,224.917,306.692,224.917Z" transform="translate(-198.067 -155.811)" fill="#ffb9b9"/>
    <path id="Path_3" data-name="Path 3" d="M306.692,224.917s1.736,18.909-2.314,24.227,2.6,15.659,2.6,15.659l12.15,14.773,17.936-8.273,2.6-15.364L337.935,245.3s-6.075-6.2-3.471-17.432S306.692,224.917,306.692,224.917Z" transform="translate(-198.067 -155.811)" opacity="0.1"/>
    <path id="Path_4" data-name="Path 4" d="M166.73,578.022v12.113l15.911,3.25-1.446-20.091Z" transform="translate(-47.691 -155.255)" fill="#ffb9b9"/>
    <path id="Path_5" data-name="Path 5" d="M232.2,572.636l-3.472,16.841,6.943,5.023,12.15-9.159-1.446-14.478Z" transform="translate(-65.423 -154.596)" fill="#ffb9b9"/>
    <path id="Path_6" data-name="Path 6" d="M335.9,727.8s-6.075-10.488-17.357-3.914c0,0-2.025,11.6-4.05,12.483s-13.307,17.727,0,19.2,19.961-2.954,19.961-2.954-2.6,2.288,1.446,1.106,2.314-7.682,2.314-7.682Z" transform="translate(-199.508 -291.147)" fill="#2f2e41"/>
    <path id="Path_7" data-name="Path 7" d="M395.014,719.5s-8.968,6.5-10.414,3.546-3.761-2.659-3.761-2.659-8.1,31.186-2.893,32.663a17.2,17.2,0,0,0,10.125-.534s6.943-4.966,6.943-1.125,19.382,3.564,27.482,3.269,3.761-6.5,3.761-6.5l-10.7-10.636L403.4,719.5S397.907,714.482,395.014,719.5Z" transform="translate(-218.985 -289.942)" fill="#2f2e41"/>
    <path id="Path_8" data-name="Path 8" d="M283.022,447.87l12.15,119.069s6.654,72.682,7.811,73.865,8.679,5.023,25.168,0l-3.761-95.137,6.943-59.091,15.911,40.773S351,636.963,353.608,636.963s18.514,5.318,22.275-1.182,3.182-76.523,3.182-76.523-1.736-110.5-14.464-114.046S283.022,447.87,283.022,447.87Z" transform="translate(-192.333 -215.969)" fill="#2f2e41"/>
    <ellipse id="Ellipse_2" data-name="Ellipse 2" cx="19.961" cy="20.386" rx="19.961" ry="20.386" transform="translate(104.285 39.264)" fill="#ffb9b9"/>
    <path id="Path_9" data-name="Path 9" d="M310.313,280.039s-2.025-12.7-2.025-15.068-8.968-3.841-8.968-3.841-6.943-7.977-8.389-6.8-23.432,16.25-26.9,18.318-7.232,10.932-6.943,11.523,18.225,39,18.225,39,7.811,23.637,2.314,36.046-12.439,36.932-2.314,41.955,59.3,15.955,68.272,6.5,15.332-12.114,17.647-12.114-9.547-41.069-6.943-44.909-1.157-27.773-1.157-27.773l13.307-38.114s-1.157-21.273-27.482-26l-15.749-7.8Z" transform="translate(-184.909 -163.661)" fill="#575a89"/>
    <path id="Path_10" data-name="Path 10" d="M254.364,456.338s-1.446,14.182-1.446,18.318-6.943,28.364,3.182,31.318,9.257-32.2,9.257-32.2V455.747Z" transform="translate(-183.058 -219.118)" fill="#ffb9b9"/>
    <path id="Path_11" data-name="Path 11" d="M418.9,438.324s1.736,13.591.868,16.546,8.389,28.659-4.05,30.137-9.257-30.728-9.257-30.728V438.324Z" transform="translate(-227.535 -214.4)" fill="#ffb9b9"/>
    <path id="Path_12" data-name="Path 12" d="M252.227,557.164l8.389-45.5h2.6a18.206,18.206,0,0,1,2.6,17.137c-3.471,10.046-6.364,28.364-6.364,28.364Z" transform="translate(-183.524 -234.261)" fill="#2f2e41"/>
    <path id="Path_13" data-name="Path 13" d="M258.958,291.647l-4.339,3.545s-5.786,93.955-4.339,101.047-5.207,17.137.579,18.023,12.729,4.727,15.911,2.364,3.761-10.932,4.918-13,3.182-26.591,3.182-26.591,6.075-24.523,2.314-42.841-7.232-36.932-7.232-36.932Z" transform="translate(-182.444 -174.678)" fill="#575a89"/>
    <path id="Path_14" data-name="Path 14" d="M389.525,281.517l13.308,11.523,10.125,60.273s6.364,46.978,1.446,47.569-12.439-.886-15.622,0A6.682,6.682,0,0,1,393,399.4s-3.471-18.909-3.471-19.2-2.314-21.863-2.314-21.863l-2.893-24.228,4.339-26.591Z" transform="translate(-221.307 -171.935)" fill="#575a89"/>
    <path id="Path_15" data-name="Path 15" d="M267.174,638.336s-1.88,5.516-4.472,13.027c-1.2,3.492-2.56,7.419-3.957,11.422-.9,2.588-1.814,5.209-2.714,7.768-1.435,4.092-2.829,8.022-4.047,11.4-1.608,4.453-2.913,7.942-3.613,9.57-3.182,7.386-61.329-4.432-65.958-7.386s-5.786-13-6.364-27.182c0-.074-.006-.148-.006-.222a52.708,52.708,0,0,1,1.834-12.128c.6-2.5,1.313-5.182,2.112-7.969,1.07-3.738,2.285-7.655,3.555-11.555,5.456-16.753,11.887-33.127,11.887-33.127s11.282-7.977,15.332-13.3,26.325-9.455,26.325-9.455c6.364.3,20.829,25.409,26.614,33.091S267.174,638.336,267.174,638.336Z" transform="translate(-161.731 -249.842)" fill="#3f3d56"/>
    <ellipse id="Ellipse_3" data-name="Ellipse 3" cx="2.604" cy="2.659" rx="2.604" ry="2.659" transform="translate(70.438 338.266)" fill="#2f2e41"/>
    <ellipse id="Ellipse_4" data-name="Ellipse 4" cx="1.446" cy="1.477" rx="1.446" ry="1.477" transform="translate(75.646 342.403)" fill="#2f2e41"/>
    <path id="Path_16" data-name="Path 16" d="M264.284,672.115c-1.2,3.492-2.56,7.419-3.957,11.422l-78.756-26.154c1.07-3.737,2.285-7.655,3.555-11.555Z" transform="translate(-163.314 -270.594)" fill="#f2f2f2"/>
    <path id="Path_17" data-name="Path 17" d="M256.03,698.556c-1.435,4.092-2.829,8.022-4.047,11.4l-75.941-25.22a52.709,52.709,0,0,1,1.834-12.128Z" transform="translate(-161.731 -277.845)" fill="#f2f2f2"/>
    <path id="Path_18" data-name="Path 18" d="M258.3,599.588s5.786,26,2.314,49.046,8.679,44.614,8.679,44.614" transform="translate(-185.263 -258.072)" fill="none" stroke="#2f2e41" stroke-miterlimit="10" stroke-width="3"/>
    <path id="Path_19" data-name="Path 19" d="M255.054,602.425s-11.282,41.955-11.571,47.864-4.918,48.159-10.7,52.591" transform="translate(-177.961 -258.84)" fill="none" stroke="#2f2e41" stroke-miterlimit="10" stroke-width="3"/>
    <path id="Path_20" data-name="Path 20" d="M307.951,189s-4.518-12,2.033-15.921l1.807,5.307s16.492-10.152,20.784-7.845l-4.066,5.538s19.2,0,20.558,7.614l-6.777.231s7.229,4.845,7.455,12.69l-14.459.923,7,4.153s-26.206,3.692-32.532-6.922Z" transform="translate(-199.029 -141.788)" fill="#2f2e41"/>
    <path id="Path_21" data-name="Path 21" d="M303.078,194.107s5.207,10.636,12.15,7.977,0-12.409,0-12.409l-4.629-2.364Z" transform="translate(-198.07 -146.423)" fill="#2f2e41"/>
    <path id="Path_22" data-name="Path 22" d="M790.874,346.722,696.452,226.214a31.463,31.463,0,0,1-15.27,7.875c-17.776,3.575-35.136-8.822-38.774-27.691a35.392,35.392,0,0,1,11.822-34.071l-32.2-41.09L438.615,291.34l168.84,215.485Z" transform="translate(-236.838 -131.237)" fill="#f2f2f2"/>
    <ellipse id="Ellipse_5" data-name="Ellipse 5" cx="26.619" cy="27.187" rx="26.619" ry="27.187" transform="translate(410.094 42.753)" fill="#f2f2f2"/>
    <path id="Path_28" data-name="Path 28" d="M0,0,12.609-.131l-.383,36.595-12.609.131Z" transform="translate(262.008 200.705) rotate(-49.171)" fill="#ef5285"/>
    <path id="Path_29" data-name="Path 29" d="M0,0,12.609-.131,12.27,32.307l-12.609.131Z" transform="translate(438.402 372.866) rotate(-49.171)" fill="#ef5285"/>
    <path id="Path_23" data-name="Path 23" d="M745.181,484.74v.747q-.025,2.812-.158,5.6c-3.285,66-56.42,117.92-121.125,118.352s-118.5-50.772-122.63-116.724q-.249-3.957-.249-7.973a125.888,125.888,0,0,1,22.448-72.071q1.757-2.545,3.654-5c.872-1.137,1.769-2.248,2.674-3.35,42.868-51.867,118.478-59.195,170.133-16.489,1.47,1.213,2.915,2.468,4.327,3.749q1.694,1.54,3.33,3.147a125.432,125.432,0,0,1,37.173,79.526Q745.181,479.447,745.181,484.74Z" transform="translate(-254.688 -193.203)" fill="#3f3d56"/>
    <path id="Path_24" data-name="Path 24" d="M616.945,635.97C541.158,635.97,479.5,573,479.5,495.594a141.568,141.568,0,0,1,36.673-95.462l3.044,2.885a137.288,137.288,0,0,0-35.565,92.577c0,75.065,59.795,136.135,133.293,136.135a130.905,130.905,0,0,0,95.69-41.363l2.981,2.952A134.984,134.984,0,0,1,616.945,635.97Z" transform="translate(-248.533 -204.057)" fill="#ef5285"/>
    <rect id="Rectangle_9" data-name="Rectangle 9" width="34.88" height="35.624" transform="translate(353.464 428.944)" fill="#ef5285"/>
    <path id="Path_25" data-name="Path 25" d="M527.122,424.115a.676.676,0,0,1,.166.1c.656.551-.166,1.612-.066,2.485.116,1.12,1.578,1.366,2.682,1.476s2.5,1.026,1.977,2.027c-2.774.975-5.581.017-8.413-1.094a125.889,125.889,0,0,0-22.448,72.071q0,4.02.249,7.973a3.135,3.135,0,0,0,.756.416,15.872,15.872,0,0,1,2.558.721c.606.365,1.013,1.009,1.619,1.349,1.736.967,4.144-.891,5.764.263a15.059,15.059,0,0,1,1.188,1.238c1.495,1.323,3.953.433,5.68,1.425a6.867,6.867,0,0,1,2.284,3.062c1.487,2.884,3.9,5.717,7.076,5.946a18.662,18.662,0,0,1,3.006.1c.98.229,1.943,1.1,1.786,2.112-.274,1.739.565,3.639.34,5.378-.407,3.181-4.817,4.572-5.191,7.752a19.547,19.547,0,0,1-.116,2.1c-.2.831-.814,1.51-1.03,2.341-.415,1.569.689,3.138,1.893,4.19S531.54,549.52,532.2,551c.7,1.569.357,3.393.581,5.1.5,3.724,3.646,6.48,6.885,8.261a7.2,7.2,0,0,1,2.691,2c.831,1.23.747,2.85,1.03,4.317.681,3.588,3.638,6.548,3.721,10.2.058,2.6-1.354,4.962-2.2,7.413a17.454,17.454,0,0,0-.756,8.007,122.793,122.793,0,0,0,15.057,11.154,4.527,4.527,0,0,0,.623-1.425,2.841,2.841,0,0,0-1.287-2.918,6.812,6.812,0,0,0,2.383-1.561,2.426,2.426,0,0,0,.432-2.7c1.462.187,3.2.28,4.161-.865a3.864,3.864,0,0,0,.415-3.452,14.491,14.491,0,0,1-.83-3.512,60.567,60.567,0,0,0,10.148-.348,6.7,6.7,0,0,0-3.089-3.953c1.528-.263,2.915-2.129,3.4-3.63a9.438,9.438,0,0,0,.066-4.69,2.547,2.547,0,0,1-.05-1.221,2.376,2.376,0,0,1,1.213-1.2q3.787-2.226,7.574-4.445a4.573,4.573,0,0,0,1.213-.908,3.76,3.76,0,0,0,.266-3.571,18.249,18.249,0,0,1-1.213-3.528c-.465-3.707,3.422-6.37,4.734-9.865a15.1,15.1,0,0,0,.714-4.317c.108-1.578.116-3.4-1.063-4.411-1.138-.975-2.907-.755-4.094-1.662-1.088-.831-1.462-2.434-2.649-3.1-1.08-.611-2.425-.221-3.629-.509-2.109-.5-3.438-2.986-5.6-3.215-1.213-.136-2.591.475-3.588-.246-.88-.645-.914-1.925-1.08-3.011a8.326,8.326,0,0,0-6.644-6.8c-1.254-.2-2.616-.127-3.687-.831s-1.57-2.044-2.425-3.036c-1.362-1.586-3.521-2.154-5.539-2.638q-4.111-.98-8.213-1.968c-1.453-.356-3.33-.543-4.119.763a5.826,5.826,0,0,0-.482,1.569,4.779,4.779,0,0,1-4.468,3.427,5.3,5.3,0,0,0-3.106-2.46,19.261,19.261,0,0,1-2.525-.611,3.592,3.592,0,0,1-1.821-2.17,3.681,3.681,0,0,1,.293-2.842,4.572,4.572,0,0,0-.756-5.4,7.041,7.041,0,0,0-5.29-1.467c-.49-1.094.332-2.324,1.213-3.121s1.96-1.569,2.151-2.757c.307-1.866-2.026-3.283-3.8-2.731s-2.9,2.316-3.646,4.046a12.3,12.3,0,0,1-1.47,2.875,2.859,2.859,0,0,1-2.79,1.171c-1.462-.382-2.018-2.154-2.342-3.647a24.258,24.258,0,0,1-.781-6.116,8.07,8.07,0,0,1,2.259-5.564c2.417-2.273,6.137-2.053,9.4-1.688a2.484,2.484,0,0,1,.249-3.223,3.534,3.534,0,0,1,3.255-.814,4.45,4.45,0,0,1,2.516,1.535c.93,1.154,1.2,2.723,1.894,4.029s2.284,2.434,3.571,1.73c1.121-.611,1.3-2.188,1.021-3.452a13.05,13.05,0,0,1-.772-3.774c.191-2.451,2.691-3.936,4.891-4.945s4.717-2.375,5.066-4.818a4.584,4.584,0,0,1,.266-1.391,2.687,2.687,0,0,1,.988-.95c6.42-4.334,12.956-8.728,20.3-11.094.382-.127.424.008.814-.085.548-.322.183-1.213-.341-1.569s-1.221-.636-1.354-1.264a4.287,4.287,0,0,1,.241-1.383,1.741,1.741,0,0,0-.654-1.475,1.662,1.662,0,0,0-1.563-.272c-.59-.8.573-1.722,1.52-1.993a40.717,40.717,0,0,1,8.679-1.442,1.518,1.518,0,0,1,.988.17,1.218,1.218,0,0,1,.075,1.646,9.169,9.169,0,0,1-1.32,1.23,3.759,3.759,0,0,0-.947,3.724c1.536.8,3.2,1.62,4.9,1.34s3.2-2.231,2.4-3.783c-.739-1.45-2.973-1.781-3.355-3.367-.448-1.858,2.126-3.512,1.545-5.327-.249-.8-1.03-1.272-1.628-1.841a5.1,5.1,0,0,1-1.071-5.547,6.106,6.106,0,0,1-5.415-1.73c-1.3-1.332-2.325-3.444-4.169-3.376-1.686.051-3.139,2.061-4.717,1.45-.39-.153-.8-.458-1.171-.28a.992.992,0,0,0-.44.738c-.4,1.959.291,4.19-.756,5.886-1.138,1.841-3.77,2.1-5.149,3.758-.747.9-1.038,2.112-1.727,3.062s-2.143,1.561-2.973.729a4.239,4.239,0,0,0-1.113-5.089,10.608,10.608,0,0,0-2.458-1.221,14.509,14.509,0,0,1-2.749-1.561,2.76,2.76,0,0,1-1-1.1,2.586,2.586,0,0,1,.066-1.747,7.031,7.031,0,0,1,5.556-4.7c1.1-.153,2.375-.1,3.106-.958.382-.45.581-1.137,1.146-1.315a1.639,1.639,0,0,1,1.055.127c1.37.492,2.732.984,4.1,1.476a2.759,2.759,0,0,0,1.462.246,1,1,0,0,0,.855-1.06c-.133-.7-1.179-1.026-1.08-1.73a1.105,1.105,0,0,1,.341-.594A14.515,14.515,0,0,1,566.37,429.1c.515.874-.3,1.9-.988,2.638s-1.229,2.07-.4,2.638a2.15,2.15,0,0,0,1.088.254,9.344,9.344,0,0,1,2.907.9c1.42.628,2.815,1.323,4.177,2.07a5.489,5.489,0,0,1,.1-2.748,1.821,1.821,0,0,1,2.159-1.2c.814.322,1.229,1.425,2.1,1.527,1.154.136,1.611-1.612,1.13-2.7s-1.445-1.985-1.52-3.181c-.058-.8.241-1.79-.382-2.273a1.63,1.63,0,0,0-.739-.271q-7.823-1.463-15.655-2.935c-.93-.178-2.267-.042-2.309.916-.025.543.448,1.077.241,1.569-.224.526-.955.483-1.487.67a2.071,2.071,0,0,0-1.163,2.18,6.015,6.015,0,0,0,.98,2.451c-1.022-.433-2.558-.509-3.579-.95a14.307,14.307,0,0,0-.9-3.52,1.244,1.244,0,0,0-.564-.878,1.2,1.2,0,0,0-1.022-.122c-1.345.212-2.691.416-4.036.628a1.543,1.543,0,0,0-.922.365c-.523.568-.008,1.476-.025,2.256a2.1,2.1,0,0,1-1.6,1.824,5.919,5.919,0,0,1-2.558-.034l-5.647-.891a9.243,9.243,0,0,0,4.269-2.918c.747-.9,1.146-2.579.066-3a2.524,2.524,0,0,0-.98-.076c-2.558.017-4.576-2.163-6.968-3.087a6.723,6.723,0,0,0-2.35-.441Z" transform="translate(-254.688 -209.644)" fill="#a5dff9"/>
    <path id="Path_26" data-name="Path 26" d="M779.286,501.11a2.976,2.976,0,0,1-2.541,1.23c-2.6-.229-3.7-4.054-6.27-4.487a.984.984,0,0,0-.681.068c-.382.212-.448.738-.473,1.179a14.92,14.92,0,0,0,.64,6.48c1.221,2.952,4.385,5.428,3.721,8.558-3.571-1.688-5.431-5.785-6.27-9.712s-.98-8.049-2.491-11.764c-1.154,1.5-3.563.263-4.609-1.315-1-1.493-1.611-3.223-2.574-4.741s-2.442-2.867-4.2-2.952c-1.852-.085-3.463,1.213-4.875,2.443a11.444,11.444,0,0,0-3.031,3.444c-.988,2.036-.731,4.428-.781,6.692-.05,2.443-.556,5.03-2.192,6.828s-4.651,2.417-6.453.8a7.479,7.479,0,0,1-1.8-3.316,164.084,164.084,0,0,1-4.883-17.8c-.3,1.374-1.487,3.147-2.616,2.341a2.377,2.377,0,0,1-.6-.8c-2.109-3.639-6-5.827-9.949-7.142s-8.081-1.917-11.976-3.359a30.373,30.373,0,0,1-6.22-3.164,5.094,5.094,0,0,0-.3,5.106,3.971,3.971,0,0,0,4.5,1.925c.864-.288,1.595-.9,2.45-1.2a1.894,1.894,0,0,1,2.383.7c.365.806-.183,1.781.091,2.629.407,1.281,2.309,1.383,2.973,2.553a2.4,2.4,0,0,1-.623,2.731,11.152,11.152,0,0,1-2.508,1.578c-2.79,1.586-4.775,4.292-7.217,6.4s-5.888,3.647-8.795,2.3c.689-3.588-3.488-6.217-4.26-9.788-.257-1.179-.125-2.426-.482-3.571-.523-1.662-1.968-2.8-3.148-4.054a16.131,16.131,0,0,1-4.277-11.578,16.4,16.4,0,0,0,0-4.419c-.324-1.433-1.495-2.824-2.94-2.765-3.3.153-7.458.407-9.185-2.468-.623-1.026-.889-2.528.008-3.316a3.081,3.081,0,0,1,2.383-.416c2.483.246,4.958.5,7.441.746,1.736.17,3.613.314,5.107-.611s2.143-3.393.756-4.487c-1-.8-2.815-.755-3.114-2.019-.241-1.06.905-2.256.282-3.147-.44-.628-1.437-.458-2.043.017a13.44,13.44,0,0,1-1.719,1.535c-1.188.628-2.6.025-3.878-.382s-2.99-.441-3.6.772c-.7,1.349.606,3.13-.075,4.487-.914,1.79-3.986.772-5.265,2.316-1.462,1.764,1,4.411.507,6.667a3.9,3.9,0,0,1-5.689-3.927c.116-1.018.639-2.061.291-3.02a3.48,3.48,0,0,0-1.752-1.637q-3.613-2.048-7.225-4.08c-.673,1.272.174,2.841,1.237,3.8s2.383,1.671,3.081,2.926a3.891,3.891,0,0,1-1.412,5.072.861.861,0,0,1-.723.127,1.021,1.021,0,0,1-.465-.636c-1.271-3.333-3.189-6.616-6.245-8.355s-7.458-1.383-9.468,1.544c-.473.7-.8,1.493-1.213,2.231-2.2,3.91-6.935,5.759-11.353,5.641a2.151,2.151,0,0,1-1.237-.3c-.714-.5-.681-1.569-.573-2.451.158-1.247.307-2.485.465-3.732a3.023,3.023,0,0,1,.805-2.044c.822-.662,2-.246,3.048-.263a3.854,3.854,0,0,0,3.5-2.757,4.494,4.494,0,0,0-1.213-4.411c-.473-.458-1.113-1.035-.864-1.654a1.345,1.345,0,0,1,.938-.645c1.869-.551,3.853-.7,5.689-1.357a5.971,5.971,0,0,0,4.069-3.936c.133-.594.191-1.315.714-1.612a2.27,2.27,0,0,1,.831-.17,4.106,4.106,0,0,0,3.463-4.3c.88-.628,2.118-.161,2.973.509a8.257,8.257,0,0,0,2.641,1.841c1.935.543,3.8-1.213,5.813-1.221a7.121,7.121,0,0,0,2.508.008c.806-.3,1.287-1.111,1.9-1.713s1.7-.975,2.276-.322c-.166-1.23-.324-2.451-.49-3.673a6.948,6.948,0,0,0,5.755-1.069l-6.27-2.163a1.343,1.343,0,0,1-.59-.322c-.457-.5,0-1.281.365-1.849.889-1.366,1.038-3.613-.424-4.292-1-.466-2.134.093-3.089.636-1.528.865-3.056,1.739-4.584,2.6-.141.891.922,1.4,1.578,1.993a2.741,2.741,0,0,1,.723,2.967,2.65,2.65,0,0,1-2.45,1.757,3.443,3.443,0,0,1,.59,2.858l-3.081.229a1.3,1.3,0,0,1-1-.2c-.332-.3-.282-.823-.365-1.264a2.692,2.692,0,0,0-2.259-2.01,7.644,7.644,0,0,0-3.147.3,1.88,1.88,0,0,1-1.362-.034,1.383,1.383,0,0,1-.532-.7,3.6,3.6,0,0,1,.7-3.41,19.277,19.277,0,0,1,2.624-2.468,15.663,15.663,0,0,0,4.559-7.21c1.694-.729,3.447-1.713,5.149-2.443a20.27,20.27,0,0,1,4.277-1.467,19.793,19.793,0,0,1,4.194-.2c1.91.034,3.829.068,5.739.11a13.545,13.545,0,0,1,5.024.738,4.766,4.766,0,0,1,3.065,3.825,1.189,1.189,0,0,1-.374,1.077,1.322,1.322,0,0,1-.723.17c-1.586.051-2.259.458-3.845.517,1,1.094,2.134,2.248,3.6,2.443,2.574.339,4.427-2.383,5.614-4.75a2.284,2.284,0,0,0,2.367,2.146,4.716,4.716,0,0,0,1.786-.712,34.55,34.55,0,0,1,16.651-4.394,1.829,1.829,0,0,1,1.37-2.019c1.188-.237,2.251.806,2.824,1.891a10.222,10.222,0,0,0,1.835,3.155c.905.814,2.658.772,3.015-.4.349-1.128-.806-2.1-1.761-2.765s-1.968-1.891-1.32-2.875A83.752,83.752,0,0,1,720.97,402.3a6.187,6.187,0,0,0,2.491-.441,1.985,1.985,0,0,0,1.163-2.1,5.6,5.6,0,0,1-5.9-2.273c5.141-.433,10.522-.814,15.464.365l4.327,3.749c-.822.874-1.918,1.7-1.32,2.57a1.818,1.818,0,0,0,1.52.534c1.046.017,2.093.042,3.131.042a125.432,125.432,0,0,1,37.172,79.527c-1.744-.068-3.347,2.188-3.123,4.156.266,2.282,1.877,4.114,3.031,6.082a9.328,9.328,0,0,1,.515.992Z" transform="translate(-288.951 -203.228)" fill="#a5dff9"/>
    <line id="Line_1" data-name="Line 1" x2="634" transform="translate(0 464.465)" fill="none" stroke="#3f3d56" stroke-miterlimit="10" stroke-width="2"/>
    <ellipse id="Ellipse_6" data-name="Ellipse 6" cx="10.535" cy="10.76" rx="10.535" ry="10.76" transform="translate(251.027 36.834)" fill="none" stroke="#3f3d56" stroke-miterlimit="10" stroke-width="2"/>
    <ellipse id="Ellipse_7" data-name="Ellipse 7" cx="10.535" cy="10.76" rx="10.535" ry="10.76" transform="translate(562.315 241.736)" fill="none" stroke="#3f3d56" stroke-miterlimit="10" stroke-width="2"/>
    <ellipse id="Ellipse_8" data-name="Ellipse 8" cx="10.535" cy="10.76" rx="10.535" ry="10.76" transform="translate(490.396 134.546)" fill="none" stroke="#3f3d56" stroke-miterlimit="10" stroke-width="2"/>
    <ellipse id="Ellipse_9" data-name="Ellipse 9" cx="11.823" cy="12.075" rx="11.823" ry="12.075" transform="translate(419.989 224.125)" fill="#3f3d56"/>
    <ellipse id="Ellipse_10" data-name="Ellipse 10" cx="15.584" cy="15.917" rx="15.584" ry="15.917" transform="translate(454.203 181.473)" fill="#fff"/>
    <path id="Path_27" data-name="Path 27" d="M815.327,376.931a21.709,21.709,0,0,0-31.157.394c-8.5,8.9-20.628,53.822-20.628,53.822s43.674-13.5,52.171-22.395a22.843,22.843,0,0,0-.386-31.821ZM792.437,400.9a10.586,10.586,0,0,1-.179-14.746,10.06,10.06,0,0,1,14.439-.183,10.586,10.586,0,0,1,.179,14.746,10.06,10.06,0,0,1-14.438.182Z" transform="translate(-329.779 -196.042)" fill="#ef5285"/>
  </g>
</svg>
