<svg xmlns="http://www.w3.org/2000/svg" width="1001.689" height="701.264" viewBox="0 0 1001.689 701.264">
  <g id="plane" transform="matrix(-0.927, 0.375, -0.375, -0.927, 1159.23, 597.557)">
    <path id="Path_30" data-name="Path 30" d="M974.019,377.834c-10.292-4.417-28.369-8.048-49.29-10.968-56.886-7.95-134.84-10.772-134.84-10.772S389.15,317.386,88.8,461.347c0,0-43.686,26.672-3.16,62.57A130.175,130.175,0,0,0,105.47,538l.5.577a108.943,108.943,0,0,0,14.885,13.361c15.559,11.716,41.832,25.6,73.814,19.311L983.5,422.664S1012.312,394.311,974.019,377.834Z" transform="translate(-68.44 71.657)" fill="#3f3d56"/>
    <path id="Path_31" data-name="Path 31" d="M778.88,366.713,944.017,503.165,1016.8,488.5,945.534,344.2S780.776,342.666,778.88,366.713Z" transform="translate(-30.474 150.121)" fill="#3f3d56"/>
    <path id="Path_32" data-name="Path 32" d="M315.78,230.454,644.716,337.891l53.02-12.907L549.148,247.139,502.713,186.63Z" transform="translate(16.876 369.28)" fill="#3f3d56"/>
    <path id="Path_33" data-name="Path 33" d="M924.729,406.726c-56.886-7.95-134.84-10.772-134.84-10.772S389.15,357.246,88.8,501.207c0,0-43.686,26.672-3.16,62.57l.137-.663s64.808-51.013,374.455-93.6Z" transform="translate(-68.44 29.388)" fill="#a5dff9"/>
    <path id="Path_34" data-name="Path 34" d="M831.136,569.86,978.2,499.929l36.944,4.773-87.962,77S820.781,608.138,831.136,569.86Z" transform="translate(-27.719 -132.656)" fill="#3f3d56"/>
    <path id="Path_35" data-name="Path 35" d="M137.2,368.381c-7.016-.135-23.091,13.569-33.089,22.8A108.946,108.946,0,0,0,119,404.537c8.059-7.2,22.4-18.857,30.371-18.4C160.88,386.686,147.764,368.6,137.2,368.381Z" transform="translate(-66.533 217.771)" fill="#a5dff9"/>
    <path id="Path_36" data-name="Path 36" d="M791.7,494.41l-94.42-5.754L431.814,697.126l-49.28,38.708L358.6,754.642c44.908,44.167,228.133-16.747,228.133-16.747,3.508-3.448,4.625-9.177,4.467-15.508-.305-11.851-5.088-25.764-6.932-30.77-.442-1.227-.716-1.877-.716-1.877Z" transform="translate(-52.933 -302.026)" fill="#3f3d56"/>
  </g>
</svg>
